<?xml version="1.0" encoding="utf-8"?>
<!-- Generator: Adobe Illustrator 15.0.0, SVG Export Plug-In . SVG Version: 6.00 Build 0)  -->
<!DOCTYPE svg PUBLIC "-//W3C//DTD SVG 1.1//EN" "http://www.w3.org/Graphics/SVG/1.1/DTD/svg11.dtd">
<svg version="1.1" id="Warstwa_1" xmlns="http://www.w3.org/2000/svg" xmlns:xlink="http://www.w3.org/1999/xlink" x="0px" y="0px"
	 width="538.583px" height="538.584px" viewBox="0 0 538.583 538.584" enable-background="new 0 0 538.583 538.584"
	 xml:space="preserve">
<path fill="none" stroke="#000000" stroke-linecap="round" stroke-linejoin="round" d="M524.358,498.718v6 M524.358,472.918v6
	 M524.358,447.118v6 M524.358,421.317v6 M524.358,395.516v6 M524.358,369.717v5.9 M524.358,343.917v5.898 M524.358,318.118v5.896
	 M524.358,292.316v5.898 M524.358,266.416v6 M524.358,240.617v6 M524.358,214.816v6 M524.358,189.017v6 M524.358,163.216v6
	 M524.358,137.417v6 M524.358,111.617v6 M524.358,85.816v5.899 M524.358,60.017v5.899 M524.358,34.216v5.9 M524.358,14.316
	L524.358,14.316 M504.559,14.316h19.801 M504.559,498.718v6 M504.559,472.918v6 M504.559,447.118v6 M504.559,421.317v6
	 M504.559,395.516v6 M504.559,369.717v5.9 M504.559,343.917v5.898 M504.559,318.118v5.896 M504.559,292.316v5.898 M504.559,266.416
	v6 M504.559,240.617v6 M504.559,214.816v6 M504.559,189.017v6 M504.559,163.216v6 M504.559,137.417v6 M504.559,111.617v6
	 M504.559,85.816v5.899 M504.559,60.017v5.899 M504.559,34.216v5.9 M504.559,14.316L504.559,14.316 M14.158,498.718v6
	 M14.158,472.918v6 M14.158,447.118v6 M14.158,421.317v6 M14.158,395.516v6 M14.158,369.717v5.9 M14.158,343.917v5.898
	 M14.158,318.118v5.896 M14.158,292.316v5.898 M14.158,266.416v6 M14.158,240.617v6 M14.158,214.816v6 M14.158,189.017v6
	 M14.158,163.216v6 M14.158,137.417v6 M14.158,111.617v6 M14.158,85.816v5.899 M14.158,60.017v5.899 M14.158,34.216v5.9
	 M14.158,14.316L14.158,14.316 M33.959,498.718v6 M33.959,472.918v6 M33.959,447.118v6 M33.959,421.317v6 M33.959,395.516v6
	 M33.959,369.717v5.9 M33.959,343.917v5.898 M33.959,318.118v5.896 M33.959,292.316v5.898 M33.959,266.416v6 M33.959,240.617v6
	 M33.959,214.816v6 M33.959,189.017v6 M33.959,163.216v6 M33.959,137.417v6 M33.959,111.617v6 M33.959,85.816v5.899 M33.959,60.017
	v5.899 M33.959,34.216v5.9 M33.959,14.316L33.959,14.316 M14.158,14.316h19.801 M259.358,498.718v6 M259.358,472.918v6
	 M259.358,447.118v6 M259.358,421.317v6 M259.358,395.516v6 M259.358,369.717v5.9 M259.358,343.917v5.898 M259.358,318.118v5.896
	 M259.358,292.316v5.898 M259.358,266.416v6 M259.358,240.617v6 M259.358,214.816v6 M259.358,189.017v6 M259.358,163.216v6
	 M259.358,137.417v6 M259.358,111.617v6 M259.358,85.816v5.899 M259.358,60.017v5.899 M259.358,34.216v5.9 M259.358,14.316
	L259.358,14.316 M279.159,498.718v6 M279.159,472.918v6 M279.159,447.118v6 M279.159,421.317v6 M279.159,395.516v6 M279.159,369.717
	v5.9 M279.159,343.917v5.898 M279.159,318.118v5.896 M279.159,292.316v5.898 M279.159,266.416v6 M279.159,240.617v6
	 M279.159,214.816v6 M279.159,189.017v6 M279.159,163.216v6 M279.159,137.417v6 M279.159,111.617v6 M279.159,85.816v5.899
	 M279.159,60.017v5.899 M279.159,34.216v5.9 M279.159,14.316L279.159,14.316 M259.358,14.316h19.801 M524.358,220.816v19.801
	 M14.158,220.816h510.2 M14.158,220.816v19.801 M14.158,240.617h510.2 M524.358,195.017v19.8 M14.158,195.017h510.2 M14.158,195.017
	v19.8 M14.158,214.816h510.2 M14.158,375.618h510.2 M524.358,375.618v19.896 M14.158,375.618v19.896 M14.158,395.516h510.2
	 M14.158,349.817h510.2 M524.358,349.817v19.897 M14.158,349.817v19.897 M14.158,369.717h510.2 M524.358,324.016v19.899
	 M14.158,324.016v19.899 M14.158,324.016h510.2 M14.158,343.917h510.2 M524.358,298.218v19.899 M14.158,298.218h510.2
	 M14.158,298.218v19.899 M14.158,318.118h510.2 M524.358,143.417v19.801 M14.158,143.417h510.2 M14.158,143.417v19.801
	 M14.158,163.216h510.2 M524.358,246.617v19.799 M14.158,246.617v19.799 M14.158,246.617h510.2 M14.158,266.416h510.2
	 M14.158,91.716h510.2 M14.158,91.716v19.9 M524.358,91.716v19.9 M14.158,111.617h510.2 M14.158,65.917v19.9 M524.358,65.917v19.9
	 M14.158,65.917h510.2 M14.158,85.816h510.2 M524.358,40.117v19.9 M14.158,40.117h510.2 M14.158,40.117v19.9 M14.158,60.017h510.2
	 M14.158,14.316h510.2 M14.158,14.316v19.899 M524.358,14.316v19.899 M14.158,34.216h510.2 M524.358,427.317v19.801 M14.158,427.317
	h510.2 M14.158,427.317v19.801 M14.158,447.118h510.2 M524.358,401.516v19.801 M14.158,401.516h510.2 M14.158,401.516v19.801
	 M14.158,421.317h510.2 M524.358,478.918v19.801 M14.158,478.918v19.801 M14.158,478.918h510.2 M14.158,498.718h510.2
	 M524.358,453.118v19.8 M14.158,453.118h510.2 M14.158,453.118v19.8 M14.158,472.918h510.2 M14.158,272.417h510.2 M524.358,272.417
	v19.899 M14.158,272.417v19.899 M14.158,292.316h510.2 M14.158,117.617h510.2 M524.358,117.617v19.8 M14.158,117.617v19.8
	 M14.158,137.417h510.2 M524.358,169.216v19.801 M14.158,169.216h510.2 M14.158,169.216v19.801 M14.158,189.017h510.2
	 M524.358,504.718v19.799 M14.158,504.718h510.2 M14.158,504.718v19.799 M14.158,524.516h510.2"/>
</svg>
