<?xml version="1.0" encoding="utf-8"?>
<!-- Generator: Adobe Illustrator 15.0.0, SVG Export Plug-In . SVG Version: 6.00 Build 0)  -->
<!DOCTYPE svg PUBLIC "-//W3C//DTD SVG 1.1//EN" "http://www.w3.org/Graphics/SVG/1.1/DTD/svg11.dtd">
<svg version="1.1" id="Warstwa_1" xmlns="http://www.w3.org/2000/svg" xmlns:xlink="http://www.w3.org/1999/xlink" x="0px" y="0px"
	 width="538.583px" height="538.584px" viewBox="0 0 538.583 538.584" enable-background="new 0 0 538.583 538.584"
	 xml:space="preserve">
<path fill="none" stroke="#000000" stroke-linecap="round" stroke-linejoin="round" d="M378.827,500.384v6 M378.827,474.584v6
	 M378.827,448.784v6 M378.827,422.983v6 M378.827,397.182v6 M378.827,371.383v5.9 M378.827,345.583v5.9 M378.827,319.784v5.898
	 M378.827,293.983v5.897 M378.827,268.083v6 M378.827,242.283v6 M378.827,216.483v6 M378.827,190.683v6 M378.827,164.883v6
	 M378.827,139.083v6 M378.827,113.283v6 M378.827,87.483v5.899 M378.827,61.683v5.899 M378.827,35.883v5.9 M378.827,15.983
	L378.827,15.983 M398.727,500.384v6 M398.727,474.584v6 M398.727,448.784v6 M398.727,422.983v6 M398.727,397.182v6 M398.727,371.383
	v5.9 M398.727,345.583v5.9 M398.727,319.784v5.898 M398.727,293.983v5.897 M398.727,268.083v6 M398.727,242.283v6 M398.727,216.483
	v6 M398.727,190.683v6 M398.727,164.883v6 M398.727,139.083v6 M398.727,113.283v6 M398.727,87.483v5.899 M398.727,61.683v5.899
	 M398.727,35.883v5.9 M398.727,15.983L398.727,15.983 M378.827,15.983h19.9 M143.627,500.384v6 M143.627,474.584v6 M143.627,448.784
	v6 M143.627,422.983v6 M143.627,397.182v6 M143.627,371.383v5.9 M143.627,345.583v5.9 M143.627,319.784v5.898 M143.627,293.983
	v5.897 M143.627,268.083v6 M143.627,242.283v6 M143.627,216.483v6 M143.627,190.683v6 M143.627,164.883v6 M143.627,139.083v6
	 M143.627,113.283v6 M143.627,87.483v5.899 M143.627,61.683v5.899 M143.627,35.883v5.9 M143.627,15.983L143.627,15.983
	 M163.427,500.384v6 M163.427,474.584v6 M163.427,448.784v6 M163.427,422.983v6 M163.427,397.182v6 M163.427,371.383v5.9
	 M163.427,345.583v5.9 M163.427,319.784v5.898 M163.427,293.983v5.897 M163.427,268.083v6 M163.427,242.283v6 M163.427,216.483v6
	 M163.427,190.683v6 M163.427,164.883v6 M163.427,139.083v6 M163.427,113.283v6 M163.427,87.483v5.899 M163.427,61.683v5.899
	 M163.427,35.883v5.9 M163.427,15.983L163.427,15.983 M143.627,15.983h19.8 M143.627,506.384v19.799 M143.627,506.384h255.1
	 M398.727,506.384v19.799 M143.627,526.182h255.1 M143.627,480.584h255.1 M143.627,480.584v19.801 M398.727,480.584v19.801
	 M143.627,500.384h255.1 M143.627,454.784h255.1 M143.627,454.784v19.8 M398.727,454.784v19.8 M143.627,474.584h255.1
	 M398.727,351.483v19.897 M143.627,351.483h255.1 M143.627,351.483v19.897 M143.627,371.383h255.1 M143.627,403.182h255.1
	 M143.627,403.182v19.803 M398.727,403.182v19.803 M143.627,422.983h255.1 M143.627,377.284v19.898 M398.727,377.284v19.898
	 M143.627,377.284h255.1 M143.627,397.182h255.1 M398.727,325.682v19.899 M143.627,325.682h255.1 M143.627,325.682v19.899
	 M143.627,345.583h255.1 M398.727,274.083v19.9 M143.627,274.083h255.1 M143.627,274.083v19.9 M143.627,293.983h255.1
	 M398.727,428.983v19.801 M143.627,428.983h255.1 M143.627,428.983v19.801 M143.627,448.784h255.1 M398.727,299.883v19.9
	 M143.627,299.883v19.9 M143.627,299.883h255.1 M143.627,319.784h255.1 M143.627,196.683v19.8 M398.727,196.683v19.8
	 M143.627,196.683h255.1 M143.627,216.483h255.1 M143.627,145.083v19.8 M143.627,145.083h255.1 M398.727,145.083v19.8
	 M143.627,164.883h255.1 M398.727,93.383v19.9 M143.627,93.383h255.1 M143.627,93.383v19.9 M143.627,113.283h255.1 M398.727,119.283
	v19.8 M143.627,119.283h255.1 M143.627,119.283v19.8 M143.627,139.083h255.1 M398.727,170.883v19.801 M143.627,170.883h255.1
	 M143.627,170.883v19.801 M143.627,190.683h255.1 M398.727,222.483v19.8 M143.627,222.483v19.8 M143.627,222.483h255.1
	 M143.627,242.283h255.1 M398.727,248.283v19.8 M143.627,248.283h255.1 M143.627,248.283v19.8 M143.627,268.083h255.1
	 M398.727,67.583v19.9 M143.627,67.583h255.1 M143.627,67.583v19.9 M143.627,87.483h255.1 M398.727,41.783v19.9 M143.627,41.783
	v19.9 M143.627,41.783h255.1 M143.627,61.683h255.1 M143.627,15.983v19.899 M398.727,15.983v19.899 M143.627,15.983h255.1
	 M143.627,35.883h255.1"/>
</svg>
