<?xml version="1.0" encoding="utf-8"?>
<!-- Generator: Adobe Illustrator 15.0.0, SVG Export Plug-In . SVG Version: 6.00 Build 0)  -->
<!DOCTYPE svg PUBLIC "-//W3C//DTD SVG 1.1//EN" "http://www.w3.org/Graphics/SVG/1.1/DTD/svg11.dtd">
<svg version="1.1" id="Warstwa_1" xmlns="http://www.w3.org/2000/svg" xmlns:xlink="http://www.w3.org/1999/xlink" x="0px" y="0px"
	 width="538.583px" height="538.584px" viewBox="0 0 538.583 538.584" enable-background="new 0 0 538.583 538.584"
	 xml:space="preserve">
<g id="Warstwa_3">
	<path fill="#FFFFFF" stroke="#000000" stroke-linecap="round" stroke-linejoin="round" d="M141.762,372.819"/>
	<polygon fill="#FFFFFF" stroke="#000000" stroke-linecap="round" stroke-linejoin="round" points="145.947,368.827 147.05,367.776 
		320.907,201.996 340.543,224.438 149.635,406.475 143.705,381.127 143.326,379.506 	"/>
	<polygon fill="#FFFFFF" stroke="#000000" stroke-linecap="round" stroke-linejoin="round" points="150.293,447.036 359.092,247.94 
		337.586,227.279 142.42,413.377 	"/>
	<polygon fill="#FFFFFF" stroke="#000000" stroke-linecap="round" stroke-linejoin="round" points="143.192,461.432 
		149.635,488.975 386.958,262.682 357.588,249.519 143.422,453.735 	"/>
	<polygon fill="#FFFFFF" stroke="#000000" stroke-linecap="round" stroke-linejoin="round" points="163.115,517.309 
		387.616,303.243 385.329,264.256 142.42,495.878 146.773,514.489 	"/>
	<polygon fill="#FFFFFF" stroke="#000000" stroke-linecap="round" stroke-linejoin="round" points="207.583,516.05 387.286,344.698 
		384.999,305.711 170.16,510.571 	"/>
	<polygon fill="#FFFFFF" stroke="#000000" stroke-linecap="round" stroke-linejoin="round" points="249.453,517.313 
		387.944,385.258 385.657,346.27 211.418,512.415 	"/>
	<polygon fill="#FFFFFF" stroke="#000000" stroke-linecap="round" stroke-linejoin="round" points="294.102,516.052 
		387.286,427.198 384.999,388.211 252.567,514.491 	"/>
	<polygon fill="#FFFFFF" stroke="#000000" stroke-linecap="round" stroke-linejoin="round" points="335.975,517.311 
		387.944,467.759 385.657,428.77 295.752,514.5 	"/>
	<polygon fill="#FFFFFF" stroke="#000000" stroke-linecap="round" stroke-linejoin="round" points="376.506,519.823 388.905,508 
		386.618,469.014 339.305,514.13 	"/>
	<polygon fill="#FFFFFF" stroke="#000000" stroke-linecap="round" stroke-linejoin="round" points="150.293,117.38 199.833,70.142 
		173.69,53.904 142.42,83.722 	"/>
	<polygon fill="#FFFFFF" stroke="#000000" stroke-linecap="round" stroke-linejoin="round" points="145.069,139.802 
		149.635,159.319 220.581,91.669 199.368,70.733 148.88,118.874 	"/>
	<polygon fill="#FFFFFF" stroke="#000000" stroke-linecap="round" stroke-linejoin="round" points="150.293,199.88 240.083,114.262 
		219.707,92.526 142.42,166.222 	"/>
	<polygon fill="#FFFFFF" stroke="#000000" stroke-linecap="round" stroke-linejoin="round" points="149.963,241.335 
		261.367,135.108 237.752,116.462 142.092,207.678 	"/>
	<polygon fill="#FFFFFF" stroke="#000000" stroke-linecap="round" stroke-linejoin="round" points="150.621,281.896 
		280.352,158.194 260.047,136.39 142.75,248.237 	"/>
	<polygon fill="#FFFFFF" stroke="#000000" stroke-linecap="round" stroke-linejoin="round" points="149.963,323.834 
		299.071,181.657 279.327,159.319 142.092,290.178 	"/>
	<polygon fill="#FFFFFF" stroke="#000000" stroke-linecap="round" stroke-linejoin="round" points="150.621,364.395 
		319.493,203.372 297.663,183.02 142.75,330.737 	"/>
	<polygon fill="#FFFFFF" stroke="#000000" stroke-linecap="round" stroke-linejoin="round" points="396.85,504.569 377.006,504.569 
		377.006,249.439 396.85,269.292 	"/>
	
		<rect x="141.732" y="34.018" fill="#FFFFFF" stroke="#000000" stroke-linecap="round" stroke-linejoin="round" width="19.842" height="470.551"/>
	
		<rect x="141.732" y="504.569" fill="#FFFFFF" stroke="#000000" stroke-linecap="round" stroke-linejoin="round" width="255.116" height="19.842"/>
	<path fill="#FFFFFF" stroke="#000000" stroke-linecap="round" stroke-linejoin="round" d="M396.86,296.354v-27.063L148.905,17.019
		L148.859,17c-1.776-1.772-4.262-2.827-7.09-2.827l-0.037,19.843h0.005l-0.005,3.472L396.86,296.354z"/>
</g>
</svg>
