<?xml version="1.0" encoding="utf-8"?>
<!-- Generator: Adobe Illustrator 15.0.0, SVG Export Plug-In . SVG Version: 6.00 Build 0)  -->
<!DOCTYPE svg PUBLIC "-//W3C//DTD SVG 1.1//EN" "http://www.w3.org/Graphics/SVG/1.1/DTD/svg11.dtd">
<svg version="1.1" id="Warstwa_1" xmlns="http://www.w3.org/2000/svg" xmlns:xlink="http://www.w3.org/1999/xlink" x="0px" y="0px"
	 width="538.583px" height="538.584px" viewBox="0 0 538.583 538.584" enable-background="new 0 0 538.583 538.584"
	 xml:space="preserve">
<g id="Warstwa_4">
	<polygon fill="#FFFFFF" stroke="#000000" stroke-linecap="round" stroke-linejoin="round" points="261.418,406.475 24.096,180.182 
		26.382,141.196 269.291,372.819 	"/>
	<polygon fill="#FFFFFF" stroke="#000000" stroke-linecap="round" stroke-linejoin="round" points="260.76,447.036 23.438,220.742 
		25.724,181.756 268.632,413.377 	"/>
	<polygon fill="#FFFFFF" stroke="#000000" stroke-linecap="round" stroke-linejoin="round" points="261.418,488.975 24.096,262.682 
		26.382,223.696 269.291,455.319 	"/>
	<polygon fill="#FFFFFF" stroke="#000000" stroke-linecap="round" stroke-linejoin="round" points="247.938,517.309 23.438,303.243 
		25.724,264.256 268.632,495.878 264.28,514.489 	"/>
	<polygon fill="#FFFFFF" stroke="#000000" stroke-linecap="round" stroke-linejoin="round" points="203.47,516.05 23.767,344.698 
		26.053,305.711 240.893,510.571 	"/>
	<polygon fill="#FFFFFF" stroke="#000000" stroke-linecap="round" stroke-linejoin="round" points="161.6,517.313 23.108,385.258 
		25.395,346.27 199.634,512.415 	"/>
	<polygon fill="#FFFFFF" stroke="#000000" stroke-linecap="round" stroke-linejoin="round" points="116.951,516.052 23.767,427.198 
		26.053,388.211 158.485,514.491 	"/>
	<polygon fill="#FFFFFF" stroke="#000000" stroke-linecap="round" stroke-linejoin="round" points="75.077,517.311 23.108,467.759 
		25.395,428.77 115.3,514.5 	"/>
	<polygon fill="#FFFFFF" stroke="#000000" stroke-linecap="round" stroke-linejoin="round" points="34.546,519.823 22.148,508 
		24.435,469.014 71.749,514.13 	"/>
	<polygon fill="#FFFFFF" stroke="#000000" stroke-linecap="round" stroke-linejoin="round" points="261.418,76.819 198.278,16.613 
		249.296,24.097 269.291,43.162 	"/>
	<polygon fill="#FFFFFF" stroke="#000000" stroke-linecap="round" stroke-linejoin="round" points="260.76,117.38 158.069,19.46 
		199.264,17.577 209.935,27.752 268.632,83.722 	"/>
	<polygon fill="#FFFFFF" stroke="#000000" stroke-linecap="round" stroke-linejoin="round" points="261.418,159.319 113.4,18.179 
		159.922,21.375 269.291,125.662 	"/>
	<polygon fill="#FFFFFF" stroke="#000000" stroke-linecap="round" stroke-linejoin="round" points="260.76,199.88 77.968,25.582 
		114.719,19.46 268.632,166.222 	"/>
	<polygon fill="#FFFFFF" stroke="#000000" stroke-linecap="round" stroke-linejoin="round" points="261.089,241.335 33.264,24.098 
		81.9,29.308 268.961,207.678 	"/>
	<polygon fill="#FFFFFF" stroke="#000000" stroke-linecap="round" stroke-linejoin="round" points="260.431,281.896 23.108,55.602 
		35.602,26.348 39.879,30.427 268.303,248.237 	"/>
	<polygon fill="#FFFFFF" stroke="#000000" stroke-linecap="round" stroke-linejoin="round" points="261.089,323.834 23.767,97.541 
		26.053,58.556 268.961,290.178 	"/>
	<polygon fill="#FFFFFF" stroke="#000000" stroke-linecap="round" stroke-linejoin="round" points="260.431,364.395 23.108,138.102 
		25.395,99.115 268.303,330.737 	"/>
	<polygon fill="#FFFFFF" stroke="#000000" stroke-linecap="round" stroke-linejoin="round" points="277.194,406.475 
		514.518,180.182 512.229,141.196 269.321,372.819 	"/>
	<polygon fill="#FFFFFF" stroke="#000000" stroke-linecap="round" stroke-linejoin="round" points="277.853,447.036 
		515.174,220.742 512.887,181.756 269.979,413.377 	"/>
	<polygon fill="#FFFFFF" stroke="#000000" stroke-linecap="round" stroke-linejoin="round" points="277.194,488.975 
		514.518,262.682 512.229,223.696 269.321,455.319 	"/>
	<polygon fill="#FFFFFF" stroke="#000000" stroke-linecap="round" stroke-linejoin="round" points="290.674,517.309 
		515.174,303.243 512.887,264.256 269.979,495.878 274.333,514.489 	"/>
	<polygon fill="#FFFFFF" stroke="#000000" stroke-linecap="round" stroke-linejoin="round" points="335.143,516.05 514.846,344.698 
		512.559,305.711 297.719,510.571 	"/>
	<polygon fill="#FFFFFF" stroke="#000000" stroke-linecap="round" stroke-linejoin="round" points="377.012,517.313 
		515.504,385.258 513.217,346.27 338.977,512.415 	"/>
	<polygon fill="#FFFFFF" stroke="#000000" stroke-linecap="round" stroke-linejoin="round" points="421.661,516.052 
		514.846,427.198 512.559,388.211 380.127,514.491 	"/>
	<polygon fill="#FFFFFF" stroke="#000000" stroke-linecap="round" stroke-linejoin="round" points="463.536,517.311 
		515.504,467.759 513.217,428.77 423.313,514.5 	"/>
	<polygon fill="#FFFFFF" stroke="#000000" stroke-linecap="round" stroke-linejoin="round" points="504.065,519.823 516.463,508 
		514.178,469.014 466.864,514.13 	"/>
	<polygon fill="#FFFFFF" stroke="#000000" stroke-linecap="round" stroke-linejoin="round" points="277.194,76.819 340.334,16.613 
		289.316,24.097 269.321,43.162 	"/>
	<polygon fill="#FFFFFF" stroke="#000000" stroke-linecap="round" stroke-linejoin="round" points="277.853,117.38 380.543,19.46 
		339.348,17.577 328.676,27.752 269.979,83.722 	"/>
	<polygon fill="#FFFFFF" stroke="#000000" stroke-linecap="round" stroke-linejoin="round" points="277.194,159.319 425.211,18.179 
		378.69,21.375 269.321,125.662 	"/>
	<polygon fill="#FFFFFF" stroke="#000000" stroke-linecap="round" stroke-linejoin="round" points="277.853,199.88 460.645,25.582 
		423.895,19.46 269.979,166.222 	"/>
	<polygon fill="#FFFFFF" stroke="#000000" stroke-linecap="round" stroke-linejoin="round" points="277.522,241.335 507.405,22.137 
		500.922,19.267 456.711,29.308 269.651,207.678 	"/>
	<polygon fill="#FFFFFF" stroke="#000000" stroke-linecap="round" stroke-linejoin="round" points="278.181,281.896 515.504,55.602 
		506.448,23.069 270.31,248.237 	"/>
	<polygon fill="#FFFFFF" stroke="#000000" stroke-linecap="round" stroke-linejoin="round" points="277.522,323.834 514.846,97.541 
		512.559,58.556 269.651,290.178 	"/>
	<polygon fill="#FFFFFF" stroke="#000000" stroke-linecap="round" stroke-linejoin="round" points="278.181,364.395 
		515.504,138.102 513.217,99.115 270.31,330.737 	"/>
	
		<rect x="14.173" y="34.018" fill="#FFFFFF" stroke="#000000" stroke-linecap="round" stroke-linejoin="round" width="19.842" height="470.551"/>
	
		<rect x="504.567" y="34.018" fill="#FFFFFF" stroke="#000000" stroke-linecap="round" stroke-linejoin="round" width="19.842" height="470.551"/>
	
		<rect x="259.38" y="34.018" fill="#FFFFFF" stroke="#000000" stroke-linecap="round" stroke-linejoin="round" width="19.843" height="470.551"/>
	
		<rect x="14.173" y="504.569" fill="#FFFFFF" stroke="#000000" stroke-linecap="round" stroke-linejoin="round" width="510.236" height="19.842"/>
	<path fill="#FFFFFF" stroke="#000000" stroke-linecap="round" stroke-linejoin="round" d="M524.409,34.016c0,0,0,0,0-9.921
		c0-5.73-4.281-9.922-9.922-9.922c-7.119,0-483.272,0-490.393,0c-5.639,0-9.921,4.189-9.921,9.922c0,9.921,0,9.921,0,9.921H524.409z
		"/>
</g>
</svg>
