<?xml version="1.0" encoding="utf-8"?>
<!-- Generator: Adobe Illustrator 15.0.0, SVG Export Plug-In . SVG Version: 6.00 Build 0)  -->
<!DOCTYPE svg PUBLIC "-//W3C//DTD SVG 1.1//EN" "http://www.w3.org/Graphics/SVG/1.1/DTD/svg11.dtd">
<svg version="1.1" id="Warstwa_1" xmlns="http://www.w3.org/2000/svg" xmlns:xlink="http://www.w3.org/1999/xlink" x="0px" y="0px"
	 width="538.583px" height="538.584px" viewBox="0 0 538.583 538.584" enable-background="new 0 0 538.583 538.584"
	 xml:space="preserve">
<g id="Warstwa_3">
	<polygon fill="#FFFFFF" stroke="#000000" stroke-linecap="round" stroke-linejoin="round" points="144.523,384.625 
		149.635,406.475 386.958,180.182 384.67,141.196 148.516,366.377 	"/>
	<polygon fill="#FFFFFF" stroke="#000000" stroke-linecap="round" stroke-linejoin="round" points="150.293,447.036 
		387.616,220.742 385.329,181.756 142.42,413.377 	"/>
	<polygon fill="#FFFFFF" stroke="#000000" stroke-linecap="round" stroke-linejoin="round" points="149.216,448.21 384.67,223.696 
		386.958,262.682 149.635,488.975 144.965,469.01 	"/>
	<polygon fill="#FFFFFF" stroke="#000000" stroke-linecap="round" stroke-linejoin="round" points="163.115,517.309 
		387.616,303.243 385.329,264.256 142.42,495.878 146.773,514.489 	"/>
	<polygon fill="#FFFFFF" stroke="#000000" stroke-linecap="round" stroke-linejoin="round" points="207.583,516.05 387.286,344.698 
		384.999,305.711 170.16,510.571 	"/>
	<polygon fill="#FFFFFF" stroke="#000000" stroke-linecap="round" stroke-linejoin="round" points="249.453,517.313 
		387.944,385.258 385.657,346.27 211.418,512.415 	"/>
	<polygon fill="#FFFFFF" stroke="#000000" stroke-linecap="round" stroke-linejoin="round" points="294.102,516.052 
		387.286,427.198 384.999,388.211 252.567,514.491 	"/>
	<polygon fill="#FFFFFF" stroke="#000000" stroke-linecap="round" stroke-linejoin="round" points="335.975,517.311 
		387.944,467.759 385.657,428.77 295.752,514.5 	"/>
	<polygon fill="#FFFFFF" stroke="#000000" stroke-linecap="round" stroke-linejoin="round" points="376.506,519.823 388.905,508 
		386.618,469.014 339.305,514.13 	"/>
	<polygon fill="#FFFFFF" stroke="#000000" stroke-linecap="round" stroke-linejoin="round" points="145.089,57.388 149.635,76.819 
		212.775,16.613 161.757,24.097 148.372,36.859 	"/>
	<polygon fill="#FFFFFF" stroke="#000000" stroke-linecap="round" stroke-linejoin="round" points="150.293,117.38 252.984,19.46 
		211.789,17.577 201.117,27.752 142.42,83.722 	"/>
	<polygon fill="#FFFFFF" stroke="#000000" stroke-linecap="round" stroke-linejoin="round" points="148.396,119.336 251.131,21.375 
		297.652,18.179 149.635,159.319 145.695,142.479 	"/>
	<polygon fill="#FFFFFF" stroke="#000000" stroke-linecap="round" stroke-linejoin="round" points="150.293,199.88 333.084,25.582 
		296.334,19.46 142.42,166.222 	"/>
	<polygon fill="#FFFFFF" stroke="#000000" stroke-linecap="round" stroke-linejoin="round" points="149.963,241.335 377.792,24.095 
		329.153,29.308 142.092,207.678 	"/>
	<polygon fill="#FFFFFF" stroke="#000000" stroke-linecap="round" stroke-linejoin="round" points="150.621,281.896 387.944,55.602 
		375.059,26.721 142.75,248.237 	"/>
	<polygon fill="#FFFFFF" stroke="#000000" stroke-linecap="round" stroke-linejoin="round" points="149.963,323.834 387.286,97.541 
		384.999,58.556 142.092,290.178 	"/>
	<polygon fill="#FFFFFF" stroke="#000000" stroke-linecap="round" stroke-linejoin="round" points="150.621,364.395 
		387.944,138.102 385.657,99.115 142.75,330.737 	"/>
	
		<rect x="377.006" y="34.018" fill="#FFFFFF" stroke="#000000" stroke-linecap="round" stroke-linejoin="round" width="19.844" height="470.551"/>
	
		<rect x="141.732" y="34.018" fill="#FFFFFF" stroke="#000000" stroke-linecap="round" stroke-linejoin="round" width="19.842" height="470.551"/>
	
		<rect x="141.732" y="504.569" fill="#FFFFFF" stroke="#000000" stroke-linecap="round" stroke-linejoin="round" width="255.116" height="19.842"/>
	<path fill="#FFFFFF" stroke="#000000" stroke-linecap="round" stroke-linejoin="round" d="M396.85,34.016c0,0,0,0,0-9.921
		c0-5.73-4.281-9.922-9.922-9.922c-7.121,0-228.153,0-235.274,0c-5.639,0-9.921,4.189-9.921,9.922c0,9.921,0,9.921,0,9.921H396.85z"
		/>
</g>
</svg>
