<?xml version="1.0" encoding="utf-8"?>
<!-- Generator: Adobe Illustrator 15.0.0, SVG Export Plug-In . SVG Version: 6.00 Build 0)  -->
<!DOCTYPE svg PUBLIC "-//W3C//DTD SVG 1.1//EN" "http://www.w3.org/Graphics/SVG/1.1/DTD/svg11.dtd">
<svg version="1.1" id="Warstwa_1" xmlns="http://www.w3.org/2000/svg" xmlns:xlink="http://www.w3.org/1999/xlink" x="0px" y="0px"
	 width="538.583px" height="538.584px" viewBox="0 0 538.583 538.584" enable-background="new 0 0 538.583 538.584"
	 xml:space="preserve">
<g id="Warstwa_5">
	<polygon fill="#FFFFFF" stroke="#000000" stroke-linecap="round" stroke-linejoin="round" points="145.773,81.61 191.871,127.708 
		195.875,123.694 146.661,74.479 	"/>
	<polygon fill="#FFFFFF" stroke="#000000" stroke-linecap="round" stroke-linejoin="round" points="144.623,39.997 232.334,127.708 
		236.338,123.694 146.934,34.29 	"/>
	<polygon fill="#FFFFFF" stroke="#000000" stroke-linecap="round" stroke-linejoin="round" points="178.301,25.194 174.292,29.203 
		272.797,127.708 276.801,123.694 	"/>
	<polygon fill="#FFFFFF" stroke="#000000" stroke-linecap="round" stroke-linejoin="round" points="218.764,25.194 214.755,29.203 
		313.26,127.708 317.264,123.694 	"/>
	<polygon fill="#FFFFFF" stroke="#000000" stroke-linecap="round" stroke-linejoin="round" points="259.227,25.194 255.218,29.203 
		353.723,127.708 357.727,123.694 	"/>
	<polygon fill="#FFFFFF" stroke="#000000" stroke-linecap="round" stroke-linejoin="round" points="299.69,25.194 295.681,29.203 
		387.395,120.918 384.975,110.48 	"/>
	<polygon fill="#FFFFFF" stroke="#000000" stroke-linecap="round" stroke-linejoin="round" points="340.153,25.194 336.143,29.203 
		389.696,82.754 391.409,76.45 	"/>
	<polygon fill="#FFFFFF" stroke="#000000" stroke-linecap="round" stroke-linejoin="round" points="387.399,25.194 391.409,29.203 
		292.902,127.708 288.898,123.694 	"/>
	<polygon fill="#FFFFFF" stroke="#000000" stroke-linecap="round" stroke-linejoin="round" points="346.936,25.194 350.946,29.203 
		252.439,127.708 248.436,123.694 	"/>
	<polygon fill="#FFFFFF" stroke="#000000" stroke-linecap="round" stroke-linejoin="round" points="384.62,76.454 333.366,127.708 
		329.362,123.694 384.618,68.438 	"/>
	<polygon fill="#FFFFFF" stroke="#000000" stroke-linecap="round" stroke-linejoin="round" points="306.473,25.194 310.483,29.203 
		211.977,127.708 207.973,123.694 	"/>
	<polygon fill="#FFFFFF" stroke="#000000" stroke-linecap="round" stroke-linejoin="round" points="266.011,25.194 270.02,29.203 
		171.514,127.708 167.51,123.694 	"/>
	<polygon fill="#FFFFFF" stroke="#000000" stroke-linecap="round" stroke-linejoin="round" points="225.548,25.194 229.557,29.203 
		142.778,115.982 142.778,107.964 	"/>
	<polygon fill="#FFFFFF" stroke="#000000" stroke-linecap="round" stroke-linejoin="round" points="185.085,25.194 189.094,29.203 
		145.241,73.056 144.623,65.656 	"/>
</g>
<g id="Warstwa_3">
	<polygon fill="#FFFFFF" stroke="#000000" stroke-linecap="round" stroke-linejoin="round" points="149.635,406.475 
		386.958,180.182 384.67,141.196 144.183,370.51 142.75,375.333 	"/>
	<polygon fill="#FFFFFF" stroke="#000000" stroke-linecap="round" stroke-linejoin="round" points="150.293,447.036 
		387.616,220.742 385.329,181.756 142.42,413.377 	"/>
	<polygon fill="#FFFFFF" stroke="#000000" stroke-linecap="round" stroke-linejoin="round" points="149.635,488.975 
		386.958,262.682 384.67,223.696 145.104,452.132 144.333,459 	"/>
	<polygon fill="#FFFFFF" stroke="#000000" stroke-linecap="round" stroke-linejoin="round" points="163.115,517.309 
		387.616,303.243 385.329,264.256 142.42,495.878 146.773,514.489 	"/>
	<polygon fill="#FFFFFF" stroke="#000000" stroke-linecap="round" stroke-linejoin="round" points="207.583,516.05 387.286,344.698 
		384.999,305.711 170.16,510.571 	"/>
	<polygon fill="#FFFFFF" stroke="#000000" stroke-linecap="round" stroke-linejoin="round" points="249.453,517.313 
		387.944,385.258 385.657,346.27 211.418,512.415 	"/>
	<polygon fill="#FFFFFF" stroke="#000000" stroke-linecap="round" stroke-linejoin="round" points="294.102,516.052 
		387.286,427.198 384.999,388.211 252.567,514.491 	"/>
	<polygon fill="#FFFFFF" stroke="#000000" stroke-linecap="round" stroke-linejoin="round" points="335.975,517.311 
		387.944,467.759 385.657,428.77 295.752,514.5 	"/>
	<polygon fill="#FFFFFF" stroke="#000000" stroke-linecap="round" stroke-linejoin="round" points="376.506,519.823 388.905,508 
		386.618,469.014 339.305,514.13 	"/>
	<polygon fill="#FFFFFF" stroke="#000000" stroke-linecap="round" stroke-linejoin="round" points="149.635,159.319 
		195.611,115.479 151.561,116.319 141.762,125.662 	"/>
	<polygon fill="#FFFFFF" stroke="#000000" stroke-linecap="round" stroke-linejoin="round" points="150.293,199.88 238.806,115.479 
		194.644,116.425 142.42,166.222 	"/>
	<polygon fill="#FFFFFF" stroke="#000000" stroke-linecap="round" stroke-linejoin="round" points="149.963,241.335 
		280.961,116.425 237.803,116.413 142.092,207.678 	"/>
	<polygon fill="#FFFFFF" stroke="#000000" stroke-linecap="round" stroke-linejoin="round" points="150.621,281.896 
		318.077,122.222 278.724,118.582 142.75,248.237 	"/>
	<polygon fill="#FFFFFF" stroke="#000000" stroke-linecap="round" stroke-linejoin="round" points="149.963,323.834 
		367.483,116.424 315.985,124.364 142.092,290.178 	"/>
	<polygon fill="#FFFFFF" stroke="#000000" stroke-linecap="round" stroke-linejoin="round" points="150.621,364.395 
		387.944,138.102 386.928,120.781 364.104,119.667 142.75,330.737 	"/>
	
		<rect x="377.006" y="34.018" fill="#FFFFFF" stroke="#000000" stroke-linecap="round" stroke-linejoin="round" width="19.844" height="470.551"/>
	
		<rect x="141.732" y="34.018" fill="#FFFFFF" stroke="#000000" stroke-linecap="round" stroke-linejoin="round" width="19.842" height="470.551"/>
	
		<rect x="141.732" y="504.569" fill="#FFFFFF" stroke="#000000" stroke-linecap="round" stroke-linejoin="round" width="255.116" height="19.842"/>
	<path fill="#FFFFFF" stroke="#000000" stroke-linecap="round" stroke-linejoin="round" d="M396.85,34.016c0,0,0,0,0-9.921
		c0-5.73-4.281-9.922-9.922-9.922c-7.121,0-228.153,0-235.274,0c-5.639,0-9.921,4.189-9.921,9.922c0,9.921,0,9.921,0,9.921H396.85z"
		/>
</g>
<g id="Warstwa_4">
	
		<rect x="161.574" y="114.443" fill="#FFFFFF" stroke="#000000" stroke-linecap="round" stroke-linejoin="round" width="215.432" height="19.842"/>
</g>
</svg>
