<?xml version="1.0" encoding="utf-8"?>
<!-- Generator: Adobe Illustrator 15.0.0, SVG Export Plug-In . SVG Version: 6.00 Build 0)  -->
<!DOCTYPE svg PUBLIC "-//W3C//DTD SVG 1.1//EN" "http://www.w3.org/Graphics/SVG/1.1/DTD/svg11.dtd">
<svg version="1.1" id="Warstwa_1" xmlns="http://www.w3.org/2000/svg" xmlns:xlink="http://www.w3.org/1999/xlink" x="0px" y="0px"
	 width="538.583px" height="538.584px" viewBox="0 0 538.583 538.584" enable-background="new 0 0 538.583 538.584"
	 xml:space="preserve">
<g id="Warstwa_5">
	<polygon fill="#FFFFFF" stroke="#000000" stroke-linecap="round" stroke-linejoin="round" points="173.894,55.132 146.798,81.833 
		150.78,85.868 181.988,55.114 	"/>
	<polygon fill="#FFFFFF" stroke="#000000" stroke-linecap="round" stroke-linejoin="round" points="194.218,73.854 146.4,120.977 
		150.382,125.012 199.123,76.98 	"/>
	
		<rect x="258.6" y="159.75" transform="matrix(0.7019 0.7123 -0.7123 0.7019 226.0461 -124.2309)" fill="#FFFFFF" stroke="#000000" stroke-linecap="round" stroke-linejoin="round" width="5.668" height="96.354"/>
	<polygon fill="#FFFFFF" stroke="#000000" stroke-linecap="round" stroke-linejoin="round" points="386.928,275.827 
		283.348,377.907 281.92,387.27 390.551,280.215 	"/>
	<polygon fill="#FFFFFF" stroke="#000000" stroke-linecap="round" stroke-linejoin="round" points="392.885,316.729 
		388.905,312.692 280.516,419.512 292.09,416.063 	"/>
	<polygon fill="#FFFFFF" stroke="#000000" stroke-linecap="round" stroke-linejoin="round" points="390.729,359.229 386.75,355.194 
		324.043,416.991 330.708,418.377 	"/>
	<polygon fill="#FFFFFF" stroke="#000000" stroke-linecap="round" stroke-linejoin="round" points="314.295,198.282 
		310.317,194.245 225.131,278.208 222.321,288.936 	"/>
	<polygon fill="#FFFFFF" stroke="#000000" stroke-linecap="round" stroke-linejoin="round" points="336.225,215.423 
		332.247,211.385 223.454,318.616 222.027,327.979 	"/>
	<polygon fill="#FFFFFF" stroke="#000000" stroke-linecap="round" stroke-linejoin="round" points="353.266,237.949 
		349.286,233.911 224.586,356.823 237.306,352.247 	"/>
	<polygon fill="#FFFFFF" stroke="#000000" stroke-linecap="round" stroke-linejoin="round" points="372.364,259.3 368.385,255.262 
		262.733,359.397 271.239,358.973 	"/>
	<polygon fill="#FFFFFF" stroke="#000000" stroke-linecap="round" stroke-linejoin="round" points="218.646,96.492 214.667,92.454 
		146.04,160.083 150.023,164.118 	"/>
	<polygon fill="#FFFFFF" stroke="#000000" stroke-linecap="round" stroke-linejoin="round" points="235.204,119.494 
		231.225,115.456 146.04,199.404 143.229,210.133 	"/>
	<polygon fill="#FFFFFF" stroke="#000000" stroke-linecap="round" stroke-linejoin="round" points="257.134,137.485 
		253.155,133.447 144.363,240.66 142.936,250.027 	"/>
	<polygon fill="#FFFFFF" stroke="#000000" stroke-linecap="round" stroke-linejoin="round" points="274.174,160.295 
		270.196,156.257 145.495,279.159 158.215,274.583 	"/>
	<polygon fill="#FFFFFF" stroke="#000000" stroke-linecap="round" stroke-linejoin="round" points="380.459,385.206 
		376.422,389.184 146.777,156.16 150.826,152.192 	"/>
	<polygon fill="#FFFFFF" stroke="#000000" stroke-linecap="round" stroke-linejoin="round" points="384.293,350.598 
		380.254,354.579 146.806,117.697 150.855,113.729 	"/>
	<polygon fill="#FFFFFF" stroke="#000000" stroke-linecap="round" stroke-linejoin="round" points="385.975,311.829 
		381.938,315.807 147.693,78.119 151.742,74.151 	"/>
</g>
<g id="Warstwa_3">
	<polygon fill="#FFFFFF" stroke="#000000" stroke-linecap="round" stroke-linejoin="round" points="149.635,406.475 
		276.208,285.786 253.316,266.473 141.762,372.819 	"/>
	<polygon fill="#FFFFFF" stroke="#000000" stroke-linecap="round" stroke-linejoin="round" points="150.293,447.036 
		296.823,307.313 274.81,287.14 142.42,413.377 	"/>
	<polygon fill="#FFFFFF" stroke="#000000" stroke-linecap="round" stroke-linejoin="round" points="149.635,488.975 316.178,330.17 
		296.04,308.208 141.762,455.319 	"/>
	<polygon fill="#FFFFFF" stroke="#000000" stroke-linecap="round" stroke-linejoin="round" points="163.115,517.309 
		336.749,351.745 315.25,331.079 142.42,495.878 146.773,514.489 	"/>
	<polygon fill="#FFFFFF" stroke="#000000" stroke-linecap="round" stroke-linejoin="round" points="207.583,516.05 358.504,372.141 
		335.741,352.682 170.16,510.571 	"/>
	<polygon fill="#FFFFFF" stroke="#000000" stroke-linecap="round" stroke-linejoin="round" points="249.453,517.313 385.59,387.502 
		357.823,372.813 211.418,512.415 	"/>
	<polygon fill="#FFFFFF" stroke="#000000" stroke-linecap="round" stroke-linejoin="round" points="294.102,516.052 
		387.286,427.198 384.999,388.211 252.567,514.491 	"/>
	<polygon fill="#FFFFFF" stroke="#000000" stroke-linecap="round" stroke-linejoin="round" points="335.975,517.311 
		387.944,467.759 385.657,428.77 295.752,514.5 	"/>
	<polygon fill="#FFFFFF" stroke="#000000" stroke-linecap="round" stroke-linejoin="round" points="376.506,519.823 388.905,508 
		386.618,469.014 339.305,514.13 	"/>
	<polygon fill="#FFFFFF" stroke="#000000" stroke-linecap="round" stroke-linejoin="round" points="150.293,199.88 172.69,178.524 
		151.665,157.406 142.42,166.222 	"/>
	<polygon fill="#FFFFFF" stroke="#000000" stroke-linecap="round" stroke-linejoin="round" points="149.963,241.335 
		191.252,201.965 171.117,180.001 142.092,207.678 	"/>
	<polygon fill="#FFFFFF" stroke="#000000" stroke-linecap="round" stroke-linejoin="round" points="150.621,281.896 
		211.551,223.797 190.694,202.52 142.75,248.237 	"/>
	<polygon fill="#FFFFFF" stroke="#000000" stroke-linecap="round" stroke-linejoin="round" points="149.963,323.834 
		234.269,243.447 210.386,225.056 142.092,290.178 	"/>
	<polygon fill="#FFFFFF" stroke="#000000" stroke-linecap="round" stroke-linejoin="round" points="150.621,364.395 
		253.316,266.473 232.752,244.916 142.75,330.737 	"/>
	
		<rect x="141.732" y="504.569" fill="#FFFFFF" stroke="#000000" stroke-linecap="round" stroke-linejoin="round" width="255.116" height="19.842"/>
	<polygon fill="#FFFFFF" stroke="#000000" stroke-linecap="round" stroke-linejoin="round" points="392.668,397.057 
		151.653,151.844 148.905,149.048 147.725,175.597 391.084,422.522 	"/>
	<polygon fill="#FFFFFF" stroke="#000000" stroke-linecap="round" stroke-linejoin="round" points="396.85,504.569 377.006,504.569 
		377.006,249.439 396.85,269.292 	"/>
	
		<rect x="141.732" y="34.018" fill="#FFFFFF" stroke="#000000" stroke-linecap="round" stroke-linejoin="round" width="19.842" height="470.551"/>
	<path fill="#FFFFFF" stroke="#000000" stroke-linecap="round" stroke-linejoin="round" d="M396.86,296.354v-27.063L148.905,17.019
		L148.859,17c-1.776-1.772-4.262-2.827-7.09-2.827l-0.037,19.843h0.005l-0.005,3.472L396.86,296.354z"/>
</g>
</svg>
