<?xml version="1.0" encoding="utf-8"?>
<!-- Generator: Adobe Illustrator 15.0.0, SVG Export Plug-In . SVG Version: 6.00 Build 0)  -->
<!DOCTYPE svg PUBLIC "-//W3C//DTD SVG 1.1//EN" "http://www.w3.org/Graphics/SVG/1.1/DTD/svg11.dtd">
<svg version="1.1" id="Warstwa_1" xmlns="http://www.w3.org/2000/svg" xmlns:xlink="http://www.w3.org/1999/xlink" x="0px" y="0px"
	 width="538.583px" height="538.584px" viewBox="0 0 538.583 538.584" enable-background="new 0 0 538.583 538.584"
	 xml:space="preserve">
<g id="Warstwa_5">
	<polygon fill="#FFFFFF" stroke="#000000" stroke-linecap="round" stroke-linejoin="round" points="22.62,25.194 18.611,29.203 
		117.117,127.708 121.121,123.695 	"/>
	<polygon fill="#FFFFFF" stroke="#000000" stroke-linecap="round" stroke-linejoin="round" points="63.083,25.194 59.074,29.203 
		157.58,127.708 161.583,123.695 	"/>
	<polygon fill="#FFFFFF" stroke="#000000" stroke-linecap="round" stroke-linejoin="round" points="25.399,76.454 76.654,127.708 
		80.658,123.695 25.401,68.438 	"/>
	<polygon fill="#FFFFFF" stroke="#000000" stroke-linecap="round" stroke-linejoin="round" points="103.546,25.194 99.537,29.203 
		198.042,127.708 202.046,123.695 	"/>
	<polygon fill="#FFFFFF" stroke="#000000" stroke-linecap="round" stroke-linejoin="round" points="144.009,25.194 140,29.203 
		238.505,127.708 242.509,123.695 	"/>
	<polygon fill="#FFFFFF" stroke="#000000" stroke-linecap="round" stroke-linejoin="round" points="184.472,25.194 180.463,29.203 
		278.967,127.708 282.971,123.695 	"/>
	<polygon fill="#FFFFFF" stroke="#000000" stroke-linecap="round" stroke-linejoin="round" points="224.935,25.194 220.926,29.203 
		319.43,127.708 323.434,123.695 	"/>
	<polygon fill="#FFFFFF" stroke="#000000" stroke-linecap="round" stroke-linejoin="round" points="265.397,25.194 261.389,29.203 
		359.893,127.708 363.897,123.695 	"/>
	<polygon fill="#FFFFFF" stroke="#000000" stroke-linecap="round" stroke-linejoin="round" points="305.86,25.194 301.852,29.203 
		400.356,127.708 404.36,123.695 	"/>
	<polygon fill="#FFFFFF" stroke="#000000" stroke-linecap="round" stroke-linejoin="round" points="346.323,25.194 342.315,29.203 
		440.819,127.708 444.823,123.695 	"/>
	<polygon fill="#FFFFFF" stroke="#000000" stroke-linecap="round" stroke-linejoin="round" points="386.786,25.194 382.778,29.203 
		481.282,127.708 485.286,123.695 	"/>
	<polygon fill="#FFFFFF" stroke="#000000" stroke-linecap="round" stroke-linejoin="round" points="427.249,25.194 423.241,29.203 
		514.956,120.918 512.536,110.481 	"/>
	<polygon fill="#FFFFFF" stroke="#000000" stroke-linecap="round" stroke-linejoin="round" points="467.711,25.194 463.704,29.203 
		517.254,82.755 518.967,76.451 	"/>
	<polygon fill="#FFFFFF" stroke="#000000" stroke-linecap="round" stroke-linejoin="round" points="514.959,25.194 518.967,29.203 
		420.461,127.708 416.458,123.695 	"/>
	<polygon fill="#FFFFFF" stroke="#000000" stroke-linecap="round" stroke-linejoin="round" points="474.497,25.194 478.504,29.203 
		379.999,127.708 375.995,123.695 	"/>
	<polygon fill="#FFFFFF" stroke="#000000" stroke-linecap="round" stroke-linejoin="round" points="512.18,76.454 460.924,127.708 
		456.92,123.695 512.178,68.438 	"/>
	<polygon fill="#FFFFFF" stroke="#000000" stroke-linecap="round" stroke-linejoin="round" points="434.034,25.194 438.042,29.203 
		339.536,127.708 335.532,123.695 	"/>
	<polygon fill="#FFFFFF" stroke="#000000" stroke-linecap="round" stroke-linejoin="round" points="393.571,25.194 397.579,29.203 
		299.073,127.708 295.069,123.695 	"/>
	<polygon fill="#FFFFFF" stroke="#000000" stroke-linecap="round" stroke-linejoin="round" points="353.108,25.194 357.116,29.203 
		258.611,127.708 254.607,123.695 	"/>
	<polygon fill="#FFFFFF" stroke="#000000" stroke-linecap="round" stroke-linejoin="round" points="312.645,25.194 316.653,29.203 
		218.148,127.708 214.145,123.695 	"/>
	<polygon fill="#FFFFFF" stroke="#000000" stroke-linecap="round" stroke-linejoin="round" points="272.182,25.194 276.19,29.203 
		177.686,127.708 173.682,123.695 	"/>
	<polygon fill="#FFFFFF" stroke="#000000" stroke-linecap="round" stroke-linejoin="round" points="231.719,25.194 235.728,29.203 
		137.223,127.708 133.219,123.695 	"/>
	<polygon fill="#FFFFFF" stroke="#000000" stroke-linecap="round" stroke-linejoin="round" points="191.256,25.194 195.265,29.203 
		96.76,127.708 92.756,123.695 	"/>
	<polygon fill="#FFFFFF" stroke="#000000" stroke-linecap="round" stroke-linejoin="round" points="150.793,25.194 154.802,29.203 
		56.297,127.708 52.293,123.695 	"/>
	<polygon fill="#FFFFFF" stroke="#000000" stroke-linecap="round" stroke-linejoin="round" points="110.33,25.194 114.339,29.203 
		22.624,120.918 25.044,110.481 	"/>
	<polygon fill="#FFFFFF" stroke="#000000" stroke-linecap="round" stroke-linejoin="round" points="69.867,25.194 73.876,29.203 
		20.324,82.755 18.611,76.451 	"/>
</g>
<g id="Warstwa_4">
	<polygon fill="#FFFFFF" stroke="#000000" stroke-linecap="round" stroke-linejoin="round" points="261.418,406.475 24.096,180.182 
		26.382,141.196 269.291,372.819 	"/>
	<polygon fill="#FFFFFF" stroke="#000000" stroke-linecap="round" stroke-linejoin="round" points="260.76,447.036 23.438,220.742 
		25.724,181.756 268.632,413.377 	"/>
	<polygon fill="#FFFFFF" stroke="#000000" stroke-linecap="round" stroke-linejoin="round" points="261.418,488.975 24.096,262.682 
		26.382,223.696 269.291,455.319 	"/>
	<polygon fill="#FFFFFF" stroke="#000000" stroke-linecap="round" stroke-linejoin="round" points="247.938,517.309 23.438,303.243 
		25.724,264.256 268.632,495.878 264.28,514.489 	"/>
	<polygon fill="#FFFFFF" stroke="#000000" stroke-linecap="round" stroke-linejoin="round" points="203.47,516.05 23.767,344.698 
		26.053,305.711 240.893,510.571 	"/>
	<polygon fill="#FFFFFF" stroke="#000000" stroke-linecap="round" stroke-linejoin="round" points="161.6,517.313 23.108,385.258 
		25.395,346.27 199.634,512.415 	"/>
	<polygon fill="#FFFFFF" stroke="#000000" stroke-linecap="round" stroke-linejoin="round" points="116.951,516.052 23.767,427.198 
		26.053,388.211 158.485,514.491 	"/>
	<polygon fill="#FFFFFF" stroke="#000000" stroke-linecap="round" stroke-linejoin="round" points="75.077,517.311 23.108,467.759 
		25.395,428.77 115.3,514.5 	"/>
	<polygon fill="#FFFFFF" stroke="#000000" stroke-linecap="round" stroke-linejoin="round" points="34.546,519.823 22.148,508 
		24.435,469.014 71.749,514.13 	"/>
	<polygon fill="#FFFFFF" stroke="#000000" stroke-linecap="round" stroke-linejoin="round" points="261.418,159.319 
		218.213,118.122 260.788,117.555 269.291,125.662 	"/>
	<polygon fill="#FFFFFF" stroke="#000000" stroke-linecap="round" stroke-linejoin="round" points="260.76,199.88 175.098,118.199 
		221.263,121.053 268.632,166.222 	"/>
	<polygon fill="#FFFFFF" stroke="#000000" stroke-linecap="round" stroke-linejoin="round" points="261.089,241.335 
		131.951,118.198 175.895,118.935 268.961,207.678 	"/>
	<polygon fill="#FFFFFF" stroke="#000000" stroke-linecap="round" stroke-linejoin="round" points="260.431,281.896 90.224,119.597 
		133.413,119.615 268.303,248.237 	"/>
	<polygon fill="#FFFFFF" stroke="#000000" stroke-linecap="round" stroke-linejoin="round" points="261.089,323.834 46.902,119.602 
		92.634,122.042 268.961,290.178 	"/>
	<polygon fill="#FFFFFF" stroke="#000000" stroke-linecap="round" stroke-linejoin="round" points="260.431,364.395 23.108,138.102 
		49.439,122.043 54.567,126.932 268.303,330.737 	"/>
	<polygon fill="#FFFFFF" stroke="#000000" stroke-linecap="round" stroke-linejoin="round" points="277.088,406.475 
		514.411,180.182 512.124,141.196 269.216,372.819 	"/>
	<polygon fill="#FFFFFF" stroke="#000000" stroke-linecap="round" stroke-linejoin="round" points="277.747,447.036 
		515.069,220.742 512.782,181.756 269.875,413.377 	"/>
	<polygon fill="#FFFFFF" stroke="#000000" stroke-linecap="round" stroke-linejoin="round" points="277.088,488.975 
		514.411,262.682 512.124,223.696 269.216,455.319 	"/>
	<polygon fill="#FFFFFF" stroke="#000000" stroke-linecap="round" stroke-linejoin="round" points="290.569,517.309 
		515.069,303.243 512.782,264.256 269.875,495.878 274.227,514.489 	"/>
	<polygon fill="#FFFFFF" stroke="#000000" stroke-linecap="round" stroke-linejoin="round" points="335.038,516.05 514.741,344.698 
		512.454,305.711 297.614,510.571 	"/>
	<polygon fill="#FFFFFF" stroke="#000000" stroke-linecap="round" stroke-linejoin="round" points="376.907,517.313 
		515.399,385.258 513.112,346.27 338.874,512.415 	"/>
	<polygon fill="#FFFFFF" stroke="#000000" stroke-linecap="round" stroke-linejoin="round" points="421.555,516.052 
		514.741,427.198 512.454,388.211 380.02,514.491 	"/>
	<polygon fill="#FFFFFF" stroke="#000000" stroke-linecap="round" stroke-linejoin="round" points="463.43,517.311 515.399,467.759 
		513.112,428.77 423.206,514.5 	"/>
	<polygon fill="#FFFFFF" stroke="#000000" stroke-linecap="round" stroke-linejoin="round" points="503.959,519.823 516.358,508 
		514.073,469.014 466.758,514.13 	"/>
	<polygon fill="#FFFFFF" stroke="#000000" stroke-linecap="round" stroke-linejoin="round" points="277.088,159.319 
		320.293,118.122 277.719,117.555 269.216,125.662 	"/>
	<polygon fill="#FFFFFF" stroke="#000000" stroke-linecap="round" stroke-linejoin="round" points="277.747,199.88 363.409,118.199 
		317.245,121.053 269.875,166.222 	"/>
	<polygon fill="#FFFFFF" stroke="#000000" stroke-linecap="round" stroke-linejoin="round" points="277.418,241.335 
		406.555,118.198 362.612,118.935 269.545,207.678 	"/>
	<polygon fill="#FFFFFF" stroke="#000000" stroke-linecap="round" stroke-linejoin="round" points="278.077,281.896 
		448.284,119.597 405.094,119.615 270.204,248.237 	"/>
	<polygon fill="#FFFFFF" stroke="#000000" stroke-linecap="round" stroke-linejoin="round" points="277.418,323.834 
		491.604,119.602 445.874,122.042 269.545,290.178 	"/>
	<polygon fill="#FFFFFF" stroke="#000000" stroke-linecap="round" stroke-linejoin="round" points="278.077,364.395 
		515.399,138.102 489.067,122.043 483.94,126.932 270.204,330.737 	"/>
	
		<rect x="259.38" y="134.285" fill="#FFFFFF" stroke="#000000" stroke-linecap="round" stroke-linejoin="round" width="19.843" height="370.284"/>
	
		<rect x="14.173" y="504.569" fill="#FFFFFF" stroke="#000000" stroke-linecap="round" stroke-linejoin="round" width="510.236" height="19.842"/>
	
		<rect x="34.016" y="114.443" fill="#FFFFFF" stroke="#000000" stroke-linecap="round" stroke-linejoin="round" width="470.551" height="19.842"/>
	<path fill="#FFFFFF" stroke="#000000" stroke-linecap="round" stroke-linejoin="round" d="M524.409,34.016c0,0,0,0,0-9.921
		c0-5.73-4.281-9.922-9.922-9.922c-7.119,0-483.272,0-490.393,0c-5.639,0-9.921,4.189-9.921,9.922c0,9.921,0,9.921,0,9.921H524.409z
		"/>
	
		<rect x="14.173" y="34.018" fill="#FFFFFF" stroke="#000000" stroke-linecap="round" stroke-linejoin="round" width="19.842" height="470.551"/>
	
		<rect x="504.567" y="34.018" fill="#FFFFFF" stroke="#000000" stroke-linecap="round" stroke-linejoin="round" width="19.842" height="470.551"/>
</g>
</svg>
