<svg width="100" height="100" enable-background="new 0 0 538.583 538.584" version="1.1" viewBox="0 0 99.999999 100" xml:space="preserve" xmlns="http://www.w3.org/2000/svg"><path d="m99.494 61.007h-21.987m0 0v-22.014m0 0h21.987m0 0v-27.498m0 0-0.20685-2.147-0.62036-2.0435-1.0346-1.9146-1.3453-1.6557-1.6807-1.3708-1.8883-1.0347-2.0697-0.62079-2.1469-0.20686m-9.7e-4 0h-76.98m0 0-2.1471 0.20686-2.0693 0.62079-1.9144 1.0347-1.6556 1.3708-1.3708 1.6559-1.0088 1.9146-0.64661 2.0436-0.20705 2.1468m0 0v77.01m0 0 0.20705 2.147 0.64661 2.0437 1.0088 1.9146 1.3708 1.6555 1.6556 1.3712 1.9144 1.0347 2.0693 0.62058 2.1471 0.20667m0-1.9e-4h76.98m0 0 2.1473-0.20667 2.0695-0.62059 1.8883-1.0347 1.6812-1.3712 1.3453-1.6555 1.0343-1.9146 0.62075-2.0437 0.20666-2.147m3.8e-4 1.9e-4v-27.498" fill="none" stroke="#000" stroke-linecap="round" stroke-linejoin="round"/></svg>
