<?xml version="1.0" encoding="UTF-8" standalone="no"?>
<!-- Generator: Adobe Illustrator 15.0.0, SVG Export Plug-In . SVG Version: 6.00 Build 0)  -->

<svg
   xmlns:dc="http://purl.org/dc/elements/1.1/"
   xmlns:cc="http://creativecommons.org/ns#"
   xmlns:rdf="http://www.w3.org/1999/02/22-rdf-syntax-ns#"
   xmlns:svg="http://www.w3.org/2000/svg"
   xmlns="http://www.w3.org/2000/svg"
   xmlns:sodipodi="http://sodipodi.sourceforge.net/DTD/sodipodi-0.dtd"
   xmlns:inkscape="http://www.inkscape.org/namespaces/inkscape"
   version="1.1"
   id="Warstwa_1"
   x="0px"
   y="0px"
   width="99.999611"
   height="100"
   viewBox="0 0 99.999609 100"
   enable-background="new 0 0 538.583 538.584"
   xml:space="preserve"
   sodipodi:docname="50034-50039-50080.svg"
   inkscape:version="0.92.1 r15371"><metadata
     id="metadata9"><rdf:RDF><cc:Work
         rdf:about=""><dc:format>image/svg+xml</dc:format><dc:type
           rdf:resource="http://purl.org/dc/dcmitype/StillImage" /><dc:title></dc:title></cc:Work></rdf:RDF></metadata><defs
     id="defs7" /><sodipodi:namedview
     pagecolor="#ffffff"
     bordercolor="#666666"
     borderopacity="1"
     objecttolerance="10"
     gridtolerance="10"
     guidetolerance="10"
     inkscape:pageopacity="0"
     inkscape:pageshadow="2"
     inkscape:window-width="1280"
     inkscape:window-height="1001"
     id="namedview5"
     showgrid="false"
     inkscape:zoom="0.43818607"
     inkscape:cx="255.19223"
     inkscape:cy="255.29913"
     inkscape:window-x="-8"
     inkscape:window-y="-8"
     inkscape:window-maximized="1"
     inkscape:current-layer="Warstwa_1" /><path
     d="m 61.002932,77.505869 v 21.98662 m 0,3.9e-4 h 27.496337 m 0,0 2.14706,-0.20645 2.04335,-0.62091 1.914,-1.03439 1.6553,-1.37136 1.37097,-1.65531 1.0344,-1.88836 0.62091,-2.06918 0.20645,-2.14706 m 7.8e-4,-5.8e-4 v -27.49634 m 0,0 H 77.505863 m 0,0 v -22.01246 m 0,0 h 21.986626 m 0,0 v -27.49653 m 0,0 -0.20665,-2.1468697 -0.62091,-2.04335 -1.03439,-1.9138 -1.37097,-1.6557 -1.65531,-1.37077 -1.9138,-1.00876 -2.04335,-0.64673995 -2.14706,-0.20723 m -7.8e-4,0 H 11.494138 m 0,0 -2.1470593,0.20703 -2.043348,0.64673995 -1.914,1.00876 -1.655498,1.37078 -1.370971,1.65569 -1.008759,1.91381 -0.64673899,2.04335 -0.207035,2.1470597 m 0,0 v 77.00494 m 0,3.9e-4 0.20684,2.14706 0.64673999,2.06918 1.008758,1.88836 1.370972,1.6553 1.655498,1.37136 1.914,1.0344 2.043348,0.62091 2.1470593,0.20645 m 1.94e-4,5.8e-4 h 27.496146 m 0,0 v -21.98701 m 0,0 h 22.012648"
     id="path2"
     inkscape:connector-curvature="0"
     style="fill:none;stroke:#000000;stroke-width:1;stroke-linecap:round;stroke-linejoin:round" /></svg>