<svg width="100" height="100" enable-background="new 0 0 538.583 538.584" version="1.1" viewBox="0 0 99.999999 100" xml:space="preserve" xmlns="http://www.w3.org/2000/svg"><path d="m0.50712 38.993h21.986m0 0v21.988m0 0h-21.986m0 0v27.498m0 0 0.20683 2.1475 0.62067 2.0693 1.0089 1.9141 1.3709 1.6556 1.6812 1.3708 1.8882 1.0088 2.0692 0.64638 2.1469 0.20704m0 7.8e-4h76.976m0 0 2.1465-0.20704 2.0694-0.64638 1.8882-1.0088 1.6814-1.3708 1.3709-1.6556 1.0089-1.9141 0.62048-2.0693 0.20663-2.1471m2e-4 -1e-3v-27.498m0 0h-21.986m0 0v-21.988m0 0h21.986m0 0v-27.498m0 0-0.20664-2.1472-0.62009-2.0694-1.0089-1.8884-1.3713-1.6816-1.681-1.3452-1.8886-1.0348-2.069-0.62094-2.1469-0.20685m-2e-4 3.9e-4h-76.976m0 0-2.1469 0.20685-2.0692 0.62093-1.8882 1.0348-1.6812 1.3452-1.3709 1.6816-1.0089 1.8884-0.62067 2.0694-0.20683 2.1471m0-3.8e-4v27.498" fill="none" stroke="#000" stroke-linecap="round" stroke-linejoin="round"/></svg>
