<svg width="100" height="100" enable-background="new 0 0 538.583 538.584" version="1.1" viewBox="0 0 99.999617 100" xml:space="preserve" xmlns="http://www.w3.org/2000/svg"><g fill="none" stroke="#000" stroke-linecap="round" stroke-linejoin="round"><line x1="22.494" x2=".50712" y1="61.003" y2="61.003"/><line x1=".50712" x2=".50712" y1="61.003" y2="88.499"/><polyline transform="matrix(.19422 0 0 .19422 -2.3284 -2.2927)" points="14.6 467.48 15.665 478.53 18.862 489.06 24.189 498.91 31.248 507.43 39.772 514.49 49.495 519.82 60.149 523.02 71.203 524.08" stroke-width="5.1489"/><g><line x1="11.5" x2="38.997" y1="99.493" y2="99.493"/><line x1="38.997" x2="38.997" y1="99.493" y2="77.506"/><line x1="38.997" x2="61.009" y1="77.506" y2="77.506"/><line x1="61.009" x2="61.009" y1="77.506" y2="99.493"/><line x1="61.009" x2="88.506" y1="99.493" y2="99.493"/></g><polyline transform="matrix(.19422 0 0 .19422 -2.3284 -2.2927)" points="467.7 524.08 478.75 523.02 489.27 519.82 499.13 514.49 507.65 507.43 514.71 498.91 519.9 489.06 523.24 478.53 524.3 467.48" stroke-width="5.1489"/><line x1="99.499" x2="99.499" y1="38.975" y2="11.494"/><line x1="99.499" x2="99.499" y1="88.499" y2="60.986"/><polyline transform="matrix(.19422 0 0 .19422 -2.3284 -2.2927)" points="524.3 70.987 523.24 59.932 519.9 49.411 514.71 39.556 507.65 31.032 499.13 23.973 489.27 18.778 478.75 15.449 467.7 14.383" stroke-width="5.1489"/><line x1="88.506" x2="11.501" y1=".50073" y2=".50073"/><polyline transform="matrix(.19422 0 0 .19422 -2.3284 -2.2927)" points="71.204 14.383 60.149 15.448 49.495 18.778 39.773 23.973 31.248 31.031 24.19 39.556 18.862 49.41 15.666 59.932 14.6 70.986" stroke-width="5.1489"/><g><line x1=".50712" x2=".50712" y1="11.494" y2="38.99"/><line x1=".50712" x2="22.494" y1="38.99" y2="38.99"/><line x1="22.494" x2="22.494" y1="38.99" y2="61.003"/><path d="m99.487 60.985h-21.928v-22.012h21.927"/></g></g></svg>
