<?xml version="1.0" encoding="UTF-8" standalone="no"?><!DOCTYPE svg PUBLIC "-//W3C//DTD SVG 1.1//EN" "http://www.w3.org/Graphics/SVG/1.1/DTD/svg11.dtd"><svg width="100%" height="100%" viewBox="0 0 80 80" version="1.1" xmlns="http://www.w3.org/2000/svg" xmlns:xlink="http://www.w3.org/1999/xlink" xml:space="preserve" xmlns:serif="http://www.serif.com/" style="fill-rule:evenodd;clip-rule:evenodd;"><g><rect x="-17.701" y="-3.564" width="115.232" height="103.733" style="fill:#fff;"/><g><path d="M93.593,77.57l-98.804,-0l-5.402,-4.319l104.206,-0l0,4.319Z" style="fill:#7f7f7f;fill-rule:nonzero;"/><rect x="14.291" y="-8.066" width="10.546" height="82.984" style="fill:#808080;"/><rect x="14.291" y="73.593" width="10.546" height="1.991" style="fill:#1d1d1b;"/><rect x="-5.211" y="77.493" width="97.376" height="25.801" style="fill:#b0b0b0;"/><g><g><rect x="12.224" y="76.179" width="1.568" height="11.213" style="fill:#a1a1a1;stroke:#797979;stroke-width:0.55px;"/><g><rect x="12.215" y="70.037" width="1.586" height="6.842" style="fill:#d5d5d5;stroke:#797979;stroke-width:0.55px;"/><path d="M12.215,71.492l1.551,0" style="fill:none;fill-rule:nonzero;stroke:#797979;stroke-width:0.55px;"/></g></g><g><rect x="25.316" y="76.179" width="1.568" height="11.213" style="fill:#a1a1a1;stroke:#797979;stroke-width:0.55px;"/><g><rect x="25.308" y="70.037" width="1.586" height="6.842" style="fill:#d5d5d5;stroke:#797979;stroke-width:0.55px;"/><path d="M25.308,71.492l1.55,0" style="fill:none;fill-rule:nonzero;stroke:#797979;stroke-width:0.55px;"/></g></g></g><rect x="10.418" y="74.522" width="18.274" height="1.034" style="fill:#d5d5d5;"/></g><path d="M39.197,73.746l-0,-0.674l27.576,0l0,0.674l-27.576,0Zm-13.72,-51.863l0.698,-0l-0,-16.384l-0.698,0l-0,16.384Zm30.266,51.189l-29.568,-52.824l-0,-9.861l35.083,62.685l-5.515,0Z" style="fill:#c00;fill-rule:nonzero;stroke:#c00;stroke-width:1px;stroke-linecap:round;stroke-linejoin:round;stroke-miterlimit:10;"/></g></svg>