<?xml version="1.0" encoding="UTF-8" ?>
<!DOCTYPE svg PUBLIC "-//W3C//DTD SVG 1.1//EN" "http://www.w3.org/Graphics/SVG/1.1/DTD/svg11.dtd">
<svg width="225pt" height="225pt" viewBox="0 0 225 225" version="1.1" xmlns="http://www.w3.org/2000/svg">
<g id="#ffffffff">
<path fill="#ffffff" opacity="1.00" d=" M 71.13 74.58 C 84.59 73.88 98.07 73.31 111.55 73.16 C 111.46 78.76 111.37 84.35 111.35 89.95 C 102.94 89.98 94.53 89.94 86.12 90.09 C 86.09 92.43 86.03 94.76 85.98 97.10 C 94.37 96.80 102.78 96.83 111.18 96.82 C 111.19 101.50 111.18 106.18 111.18 110.85 C 102.78 110.88 94.38 110.81 85.98 110.80 C 86.02 113.05 86.07 115.31 86.08 117.56 C 94.44 117.67 102.79 117.80 111.15 117.78 C 111.21 123.44 111.24 129.10 111.33 134.76 C 97.92 134.55 84.52 134.01 71.13 133.37 C 70.83 113.78 70.84 94.18 71.13 74.58 Z" />
<path fill="#ffffff" opacity="1.00" d=" M 120.83 75.75 C 123.29 73.47 126.86 73.38 130.02 73.53 C 141.06 73.99 152.08 74.74 163.08 75.73 C 162.93 80.85 162.97 85.98 162.97 91.11 C 152.51 90.69 142.04 90.57 131.59 89.97 C 131.58 99.17 131.60 108.37 131.58 117.58 C 137.24 117.44 142.91 117.26 148.57 117.19 C 148.52 110.77 148.55 104.35 148.55 97.93 C 153.56 98.07 158.58 98.06 163.59 98.17 C 163.57 104.78 163.62 111.40 163.58 118.02 C 163.44 122.59 162.46 127.69 158.72 130.72 C 154.66 134.14 148.98 133.24 144.07 133.75 C 137.70 133.74 131.27 134.95 124.93 134.12 C 118.85 132.95 116.68 126.12 116.36 120.70 C 116.13 110.12 116.28 99.54 116.27 88.96 C 116.54 84.33 117.00 78.94 120.83 75.75 Z" />
<path fill="#ffffff" opacity="1.00" d=" M 44.38 77.38 C 51.40 76.68 58.40 75.74 65.42 75.08 C 65.11 94.35 65.10 113.63 65.42 132.90 C 60.56 132.52 55.72 131.92 50.86 131.48 C 50.80 118.51 50.08 105.51 51.39 92.58 C 48.40 105.16 45.86 117.86 43.32 130.53 C 39.30 129.90 35.25 129.50 31.26 128.73 C 28.28 117.34 25.73 105.84 22.65 94.48 C 23.98 105.47 23.26 116.56 23.68 127.61 C 18.82 126.56 13.93 125.72 9.07 124.67 C 9.14 111.00 8.69 97.30 9.24 83.64 C 16.18 82.10 23.20 80.93 30.18 79.57 C 32.26 90.53 35.47 101.27 37.03 112.33 C 38.75 100.55 41.80 88.99 44.38 77.38 Z" />
<path fill="#ffffff" opacity="1.00" d=" M 168.69 86.05 C 168.84 81.24 173.11 76.89 178.07 77.55 C 187.12 78.59 196.09 80.26 205.04 81.96 C 209.96 82.83 215.15 86.60 215.27 92.00 C 215.39 102.78 215.25 113.58 215.33 124.36 C 210.27 125.36 205.21 126.36 200.14 127.31 C 200.09 121.12 200.11 114.93 200.11 108.74 C 194.65 108.88 189.20 108.97 183.75 109.13 C 183.75 116.03 183.72 122.93 183.80 129.83 C 178.76 130.59 173.68 131.12 168.63 131.83 C 168.62 116.57 168.37 101.30 168.69 86.05 M 183.74 92.38 C 183.75 94.46 183.75 96.54 183.74 98.62 C 189.19 98.98 194.65 99.02 200.10 99.23 C 200.10 97.37 200.11 95.50 200.12 93.64 C 194.66 93.18 189.20 92.76 183.74 92.38 Z" />
<path fill="#ffffff" opacity="1.00" d=" M 69.79 152.13 C 72.14 152.11 74.50 152.10 76.85 152.11 C 76.83 154.79 76.82 157.47 76.82 160.15 C 79.27 160.14 81.72 160.14 84.17 160.15 C 84.17 157.46 84.17 154.78 84.17 152.10 C 86.53 152.10 88.89 152.10 91.25 152.11 C 91.25 159.33 91.24 166.56 91.25 173.78 C 88.89 173.78 86.53 173.78 84.17 173.79 C 84.17 170.89 84.17 168.00 84.18 165.11 C 81.73 165.17 79.29 165.15 76.84 165.05 C 76.82 167.96 76.83 170.87 76.85 173.78 C 74.50 173.78 72.15 173.77 69.79 173.76 C 69.80 166.55 69.80 159.34 69.79 152.13 Z" />
<path fill="#ffffff" opacity="1.00" d=" M 96.51 152.45 C 100.99 151.78 105.60 152.11 110.13 152.22 C 112.54 152.26 114.19 154.62 114.17 156.90 C 114.32 160.93 114.33 164.97 114.17 169.00 C 114.13 171.28 112.44 173.64 110.02 173.67 C 105.51 173.77 100.91 174.13 96.45 173.41 C 92.50 171.57 93.62 166.53 93.44 163.03 C 93.69 159.49 92.36 154.22 96.51 152.45 M 100.50 158.00 C 100.50 161.25 100.50 164.50 100.48 167.75 C 102.75 167.72 105.01 167.72 107.28 167.75 C 107.28 164.50 107.28 161.25 107.28 158.00 C 105.02 158.00 102.76 158.00 100.50 158.00 Z" />
<path fill="#ffffff" opacity="1.00" d=" M 116.61 152.07 C 119.03 152.10 121.46 152.11 123.89 152.12 C 123.89 157.33 123.91 162.54 123.88 167.75 C 127.38 167.71 130.88 167.72 134.39 167.71 C 134.37 169.75 134.36 171.78 134.35 173.82 C 128.44 173.76 122.52 173.76 116.61 173.82 C 116.60 166.57 116.61 159.32 116.61 152.07 Z" />
<path fill="#ffffff" opacity="1.00" d=" M 136.59 152.07 C 143.20 152.13 149.82 152.12 156.44 152.07 C 156.45 154.04 156.46 156.01 156.49 157.99 C 152.80 161.33 149.01 164.56 145.28 167.86 C 149.01 167.67 152.75 167.71 156.49 167.72 C 156.47 169.75 156.46 171.78 156.45 173.82 C 149.71 173.74 142.97 173.80 136.22 173.78 C 136.22 171.89 136.22 170.01 136.22 168.13 C 140.08 164.73 144.04 161.43 147.88 158.00 C 144.11 157.99 140.33 158.00 136.56 158.00 C 136.58 156.02 136.59 154.05 136.59 152.07 Z" />
</g>
<g id="#000000ff">
<path fill="#000000" opacity="1.00" d=" M 71.09 29.36 C 92.97 18.60 119.07 16.98 142.19 24.60 C 166.89 32.57 187.69 51.33 198.41 74.93 C 204.39 76.09 210.65 77.48 215.33 81.64 C 218.76 84.40 221.31 88.52 221.25 93.03 C 221.27 104.55 221.22 116.07 221.27 127.60 C 215.72 129.29 210.07 130.62 204.44 132.02 C 200.09 152.43 188.52 171.12 172.36 184.31 C 155.55 198.13 133.80 205.87 112.01 205.52 C 88.92 205.66 65.95 196.71 48.95 181.11 C 34.78 168.32 24.70 151.05 20.66 132.38 C 14.88 131.10 9.15 129.63 3.48 127.94 C 3.15 112.11 3.14 96.27 3.40 80.44 C 11.16 78.32 18.91 76.19 26.78 74.54 C 35.80 54.99 51.66 38.68 71.09 29.36 M 71.13 74.58 C 70.84 94.18 70.83 113.78 71.13 133.37 C 84.52 134.01 97.92 134.55 111.33 134.76 C 111.24 129.10 111.21 123.44 111.15 117.78 C 102.79 117.80 94.44 117.67 86.08 117.56 C 86.07 115.31 86.02 113.05 85.98 110.80 C 94.38 110.81 102.78 110.88 111.18 110.85 C 111.18 106.18 111.19 101.50 111.18 96.82 C 102.78 96.83 94.37 96.80 85.98 97.10 C 86.03 94.76 86.09 92.43 86.12 90.09 C 94.53 89.94 102.94 89.98 111.35 89.95 C 111.37 84.35 111.46 78.76 111.55 73.16 C 98.07 73.31 84.59 73.88 71.13 74.58 M 120.83 75.75 C 117.00 78.94 116.54 84.33 116.27 88.96 C 116.28 99.54 116.13 110.12 116.36 120.70 C 116.68 126.12 118.85 132.95 124.93 134.12 C 131.27 134.95 137.70 133.74 144.07 133.75 C 148.98 133.24 154.66 134.14 158.72 130.72 C 162.46 127.69 163.44 122.59 163.58 118.02 C 163.62 111.40 163.57 104.78 163.59 98.17 C 158.58 98.06 153.56 98.07 148.55 97.93 C 148.55 104.35 148.52 110.77 148.57 117.19 C 142.91 117.26 137.24 117.44 131.58 117.58 C 131.60 108.37 131.58 99.17 131.59 89.97 C 142.04 90.57 152.51 90.69 162.97 91.11 C 162.97 85.98 162.93 80.85 163.08 75.73 C 152.08 74.74 141.06 73.99 130.02 73.53 C 126.86 73.38 123.29 73.47 120.83 75.75 M 44.38 77.38 C 41.80 88.99 38.75 100.55 37.03 112.33 C 35.47 101.27 32.26 90.53 30.18 79.57 C 23.20 80.93 16.18 82.10 9.24 83.64 C 8.69 97.30 9.14 111.00 9.07 124.67 C 13.93 125.72 18.82 126.56 23.68 127.61 C 23.26 116.56 23.98 105.47 22.65 94.48 C 25.73 105.84 28.28 117.34 31.26 128.73 C 35.25 129.50 39.30 129.90 43.32 130.53 C 45.86 117.86 48.40 105.16 51.39 92.58 C 50.08 105.51 50.80 118.51 50.86 131.48 C 55.72 131.92 60.56 132.52 65.42 132.90 C 65.10 113.63 65.11 94.35 65.42 75.08 C 58.40 75.74 51.40 76.68 44.38 77.38 M 168.69 86.05 C 168.37 101.30 168.62 116.57 168.63 131.83 C 173.68 131.12 178.76 130.59 183.80 129.83 C 183.72 122.93 183.75 116.03 183.75 109.13 C 189.20 108.97 194.65 108.88 200.11 108.74 C 200.11 114.93 200.09 121.12 200.14 127.31 C 205.21 126.36 210.27 125.36 215.33 124.36 C 215.25 113.58 215.39 102.78 215.27 92.00 C 215.15 86.60 209.96 82.83 205.04 81.96 C 196.09 80.26 187.12 78.59 178.07 77.55 C 173.11 76.89 168.84 81.24 168.69 86.05 M 190.06 118.16 C 190.09 123.79 190.12 129.42 190.11 135.05 C 181.14 136.75 172.12 138.15 163.06 139.21 C 163.13 138.31 163.26 136.50 163.33 135.59 C 160.25 137.93 156.78 140.02 152.82 140.28 C 144.58 141.03 136.31 141.49 128.05 141.80 C 124.16 142.04 120.56 140.36 117.55 138.04 C 117.61 139.40 117.67 140.75 117.73 142.11 C 89.40 142.11 60.96 140.59 33.12 135.08 C 38.50 158.28 55.25 178.23 76.79 188.19 C 95.09 196.87 116.60 198.51 136.03 192.81 C 153.78 187.72 169.78 176.48 180.26 161.24 C 189.06 148.70 193.73 133.44 193.83 118.14 C 192.57 118.15 191.32 118.15 190.06 118.16 Z" />
<path fill="#000000" opacity="1.00" d=" M 183.74 92.38 C 189.20 92.76 194.66 93.18 200.12 93.64 C 200.11 95.50 200.10 97.37 200.10 99.23 C 194.65 99.02 189.19 98.98 183.74 98.62 C 183.75 96.54 183.75 94.46 183.74 92.38 Z" />
<path fill="#000000" opacity="1.00" d=" M 66.95 149.26 C 71.19 149.28 75.43 149.28 79.67 149.27 C 79.66 151.94 79.66 154.61 79.67 157.27 L 81.34 157.28 C 81.35 154.60 81.33 151.93 81.27 149.26 C 85.68 149.74 90.48 148.31 94.63 150.07 C 100.71 148.83 107.11 148.91 113.20 150.02 C 117.51 148.39 122.32 149.71 126.83 149.25 C 126.79 154.47 126.80 159.69 126.82 164.91 C 129.77 164.90 132.73 164.90 135.69 164.87 C 137.21 163.55 138.72 162.22 140.24 160.88 C 138.08 160.95 135.93 160.99 133.78 161.02 C 133.78 157.09 133.78 153.16 133.77 149.23 C 142.28 149.33 150.78 149.28 159.28 149.25 C 159.27 152.70 159.31 156.15 159.20 159.59 C 157.10 161.30 155.03 163.04 153.01 164.84 C 155.10 164.87 157.20 164.88 159.29 164.89 C 159.29 168.80 159.28 172.70 159.32 176.61 C 146.21 176.54 133.09 176.56 119.98 176.59 C 117.79 176.49 115.39 177.03 113.40 175.83 C 107.23 176.95 100.78 176.99 94.61 175.88 C 90.38 177.45 85.69 176.17 81.27 176.59 C 81.31 173.70 81.32 170.81 81.31 167.92 L 79.68 167.90 C 79.68 170.79 79.68 173.68 79.69 176.58 C 75.44 176.56 71.19 176.56 66.93 176.60 C 66.95 167.48 66.96 158.37 66.95 149.26 M 69.79 152.13 C 69.80 159.34 69.80 166.55 69.79 173.76 C 72.15 173.77 74.50 173.78 76.85 173.78 C 76.83 170.87 76.82 167.96 76.84 165.05 C 79.29 165.15 81.73 165.17 84.18 165.11 C 84.17 168.00 84.17 170.89 84.17 173.79 C 86.53 173.78 88.89 173.78 91.25 173.78 C 91.24 166.56 91.25 159.33 91.25 152.11 C 88.89 152.10 86.53 152.10 84.17 152.10 C 84.17 154.78 84.17 157.46 84.17 160.15 C 81.72 160.14 79.27 160.14 76.82 160.15 C 76.82 157.47 76.83 154.79 76.85 152.11 C 74.50 152.10 72.14 152.11 69.79 152.13 M 96.51 152.45 C 92.36 154.22 93.69 159.49 93.44 163.03 C 93.62 166.53 92.50 171.57 96.45 173.41 C 100.91 174.13 105.51 173.77 110.02 173.67 C 112.44 173.64 114.13 171.28 114.17 169.00 C 114.33 164.97 114.32 160.93 114.17 156.90 C 114.19 154.62 112.54 152.26 110.13 152.22 C 105.60 152.11 100.99 151.78 96.51 152.45 M 116.61 152.07 C 116.61 159.32 116.60 166.57 116.61 173.82 C 122.52 173.76 128.44 173.76 134.35 173.82 C 134.36 171.78 134.37 169.75 134.39 167.71 C 130.88 167.72 127.38 167.71 123.88 167.75 C 123.91 162.54 123.89 157.33 123.89 152.12 C 121.46 152.11 119.03 152.10 116.61 152.07 M 136.59 152.07 C 136.59 154.05 136.58 156.02 136.56 158.00 C 140.33 158.00 144.11 157.99 147.88 158.00 C 144.04 161.43 140.08 164.73 136.22 168.13 C 136.22 170.01 136.22 171.89 136.22 173.78 C 142.97 173.80 149.71 173.74 156.45 173.82 C 156.46 171.78 156.47 169.75 156.49 167.72 C 152.75 167.71 149.01 167.67 145.28 167.86 C 149.01 164.56 152.80 161.33 156.49 157.99 C 156.46 156.01 156.45 154.04 156.44 152.07 C 149.82 152.12 143.20 152.13 136.59 152.07 Z" />
<path fill="#000000" opacity="1.00" d=" M 100.50 158.00 C 102.76 158.00 105.02 158.00 107.28 158.00 C 107.28 161.25 107.28 164.50 107.28 167.75 C 105.01 167.72 102.75 167.72 100.48 167.75 C 100.50 164.50 100.50 161.25 100.50 158.00 M 103.20 160.99 C 103.22 162.30 103.24 163.61 103.27 164.93 C 103.58 164.94 104.20 164.97 104.51 164.99 C 104.52 163.66 104.52 162.34 104.52 161.02 C 104.19 161.02 103.53 161.00 103.20 160.99 Z" />
</g>
<g id="#fba918ff">
<path fill="#fba918" opacity="1.00" d=" M 190.06 118.16 C 191.32 118.15 192.57 118.15 193.83 118.14 C 193.73 133.44 189.06 148.70 180.26 161.24 C 169.78 176.48 153.78 187.72 136.03 192.81 C 116.60 198.51 95.09 196.87 76.79 188.19 C 55.25 178.23 38.50 158.28 33.12 135.08 C 60.96 140.59 89.40 142.11 117.73 142.11 C 117.67 140.75 117.61 139.40 117.55 138.04 C 120.56 140.36 124.16 142.04 128.05 141.80 C 136.31 141.49 144.58 141.03 152.82 140.28 C 156.78 140.02 160.25 137.93 163.33 135.59 C 163.26 136.50 163.13 138.31 163.06 139.21 C 172.12 138.15 181.14 136.75 190.11 135.05 C 190.12 129.42 190.09 123.79 190.06 118.16 M 66.95 149.26 C 66.96 158.37 66.95 167.48 66.93 176.60 C 71.19 176.56 75.44 176.56 79.69 176.58 C 79.68 173.68 79.68 170.79 79.68 167.90 L 81.31 167.92 C 81.32 170.81 81.31 173.70 81.27 176.59 C 85.69 176.17 90.38 177.45 94.61 175.88 C 100.78 176.99 107.23 176.95 113.40 175.83 C 115.39 177.03 117.79 176.49 119.98 176.59 C 133.09 176.56 146.21 176.54 159.32 176.61 C 159.28 172.70 159.29 168.80 159.29 164.89 C 157.20 164.88 155.10 164.87 153.01 164.84 C 155.03 163.04 157.10 161.30 159.20 159.59 C 159.31 156.15 159.27 152.70 159.28 149.25 C 150.78 149.28 142.28 149.33 133.77 149.23 C 133.78 153.16 133.78 157.09 133.78 161.02 C 135.93 160.99 138.08 160.95 140.24 160.88 C 138.72 162.22 137.21 163.55 135.69 164.87 C 132.73 164.90 129.77 164.90 126.82 164.91 C 126.80 159.69 126.79 154.47 126.83 149.25 C 122.32 149.71 117.51 148.39 113.20 150.02 C 107.11 148.91 100.71 148.83 94.63 150.07 C 90.48 148.31 85.68 149.74 81.27 149.26 C 81.33 151.93 81.35 154.60 81.34 157.28 L 79.67 157.27 C 79.66 154.61 79.66 151.94 79.67 149.27 C 75.43 149.28 71.19 149.28 66.95 149.26 Z" />
<path fill="#fba918" opacity="1.00" d=" M 103.20 160.99 C 103.53 161.00 104.19 161.02 104.52 161.02 C 104.52 162.34 104.52 163.66 104.51 164.99 C 104.20 164.97 103.58 164.94 103.27 164.93 C 103.24 163.61 103.22 162.30 103.20 160.99 Z" />
</g>
</svg>
