<?xml version="1.0" encoding="UTF-8" standalone="no"?><!DOCTYPE svg PUBLIC "-//W3C//DTD SVG 1.1//EN" "http://www.w3.org/Graphics/SVG/1.1/DTD/svg11.dtd"><svg width="100%" height="100%" viewBox="0 0 50 50" version="1.1" xmlns="http://www.w3.org/2000/svg" xmlns:xlink="http://www.w3.org/1999/xlink" xml:space="preserve" xmlns:serif="http://www.serif.com/" style="fill-rule:evenodd;clip-rule:evenodd;stroke-linejoin:round;stroke-miterlimit:2;"><g><circle cx="25" cy="25" r="25" style="fill:#ebebeb;"/><path d="M25,0c13.798,0 25,11.202 25,25c0,13.798 -11.202,25 -25,25c-13.798,0 -25,-11.202 -25,-25c0,-13.798 11.202,-25 25,-25Zm0,2c12.694,0 23,10.306 23,23c0,12.694 -10.306,23 -23,23c-12.694,0 -23,-10.306 -23,-23c0,-12.694 10.306,-23 23,-23Z" style="fill:#e61a1a;"/><g><path d="M41.681,34.601l-34.119,0c-0,0 0.019,3.819 -0,4.254c-0.018,0.415 0.091,0.596 0.452,0.596l1.811,0c0.452,0 0.56,-0.217 0.56,-0.47l0,-0.652c0,0 7.241,1.159 15.259,1.086c8.018,-0.072 14.028,-1.122 14.028,-1.122c-0,0 -0.055,0.598 -0,0.869c0.053,0.272 0.362,0.289 0.705,0.289l1.575,0c0.507,0 0.579,-0.325 0.579,-0.669l0,-3.331c0,-1.05 -0.452,-0.85 -0.85,-0.85Z"/><path d="M14.081,30.604c-0,0 22.658,-22.834 22.95,-23.127c0.294,-0.293 0.441,-0.617 0.235,-0.88c-0.205,-0.263 -0.878,-0.908 -1.084,-1.085c-0.205,-0.175 -0.527,-0.086 -0.821,0.206c-0.293,0.293 -2.814,2.756 -2.814,2.756c0,-0 -3.663,-3.43 -8.793,-3.137c-4.196,0.24 -8.919,2.712 -11.051,6.8c-2.843,5.452 -1.231,10.23 -1.231,10.23c0,-0 -2.022,1.935 -2.755,2.667c-0.733,0.733 -1.143,1.993 -1.201,3.635c-0.051,1.405 -0,5.041 -0,5.041l6.565,0l-0,-3.106Zm5.198,-16.425c2.838,-3.026 6.83,-1.305 7.819,-0.483c0.383,0.317 0.097,0.651 -0.145,0.989c-0.241,0.337 -1.327,1.352 -1.327,1.352c0,-0 -2.244,-0.724 -3.668,0.917c-1.222,1.408 -0.676,3.33 -0.676,3.33c-0,-0 -1.109,1.134 -1.424,1.496c-0.314,0.362 -0.496,0.351 -0.869,0.025c-0.579,-0.508 -2.654,-4.489 0.29,-7.626Zm-8.51,14.9c-0.648,0 -1.172,-0.525 -1.172,-1.172c-0,-0.648 0.524,-1.173 1.172,-1.173c0.647,0 1.173,0.525 1.173,1.173c-0,0.647 -0.526,1.172 -1.173,1.172Z"/><path d="M36.8,19.705c-0.459,-0.192 -1.617,-0.844 -1.593,-0.773c0.024,0.073 0.845,-1.086 1.183,-1.351c0.338,-0.265 0.193,-0.507 -0,-0.652c-0.193,-0.144 -1.207,-0.168 -1.641,-0.289c-0.435,-0.121 -0.241,-0.507 0.096,-0.917c0.338,-0.41 0.676,-1.207 0.676,-1.207l-0.434,-0.217c-0,0 -0.169,0.073 -0.555,0.145c-0.388,0.072 -1.16,0.072 -1.328,-0.048c-0.168,-0.121 0.483,-1.834 0.483,-1.834l-0.072,-0.242c-0,0 -5.383,5.358 -5.72,5.672c-0.338,0.314 -0.121,0.603 0.024,0.82c0.144,0.217 1.544,2.124 -0.29,4.103c-1.833,1.98 -3.909,0.845 -4.488,0.483c-0.579,-0.362 -0.821,0.169 -1.063,0.362c-0.241,0.193 -5.188,5.165 -5.188,5.165c-0.266,0.362 0.048,0.361 0.193,0.361c0.144,-0 1.134,-0.411 1.592,-0.531c0.459,-0.12 0.266,1.206 0.169,1.496c-0.096,0.289 -0.024,0.772 0.242,0.772c0.266,0 1.014,-0.555 1.616,-0.917c0.604,-0.362 0.46,1.351 0.701,1.931c0.242,0.579 1.255,-0.628 1.665,-1.062c0.411,-0.435 0.628,0.41 0.845,0.989c0.217,0.579 0.507,0.797 0.724,0.677c0.217,-0.121 0.675,-1.111 0.941,-1.545c0.265,-0.435 1.206,0.892 1.544,1.352c0.339,0.458 0.579,-0.724 0.821,-1.594c0.241,-0.869 1.425,0.531 1.979,0.821c0.555,0.289 0.314,-0.941 0.314,-1.4c0,-0.457 0.168,-0.869 0.579,-0.748c0.411,0.121 1.231,0.627 1.593,0.7c0.362,0.072 0.097,-1.11 -0.096,-1.907c-0.193,-0.796 1.52,-0.241 2.099,-0.096c0.579,0.145 -0.145,-1.424 -0.434,-1.834c-0.29,-0.41 0.434,-0.531 1.013,-0.483c0.579,0.049 1.158,-0.241 1.158,-0.241c0,0 -0.506,-0.869 -1.037,-1.375c-0.532,-0.507 0.314,-0.869 0.917,-0.893c0.603,-0.024 1.013,-0.483 1.013,-0.483c0,0 -0.217,-0.434 -0.555,-0.603c-0.339,-0.169 -1.086,-1.062 -1.086,-1.062c0,0 0.724,-0.458 1.255,-0.748c0.531,-0.291 0.603,-0.604 0.145,-0.797Z"/></g></g></svg>